<?xml version="1.0" encoding="utf-8"?>
<!-- Generator: Adobe Illustrator 23.0.6, SVG Export Plug-In . SVG Version: 6.00 Build 0)  -->
<svg version="1.1" id="logo" xmlns="http://www.w3.org/2000/svg" xmlns:xlink="http://www.w3.org/1999/xlink" x="0px" y="0px"
	 viewBox="0 0 300 300" style="enable-background:new 0 0 300 300;" xml:space="preserve">
<style type="text/css">
	.st0{fill:#455868;}
	.st1{fill:#5E798D;}
	.st2{fill:#2DBE60;}
	.st3{fill:#5667AF;}
	.st4{fill:#59BE8E;}
	.st5{fill:#381C52;}
	.st6{fill:#1E88E5;}
	.st7{fill:none;stroke:#1E2F3D;stroke-width:3.5;stroke-linecap:round;stroke-linejoin:round;stroke-miterlimit:10;}
	.st8{fill:#34495E;}
	.st9{fill:#374B5F;}
	.st10{fill:#858585;}
	.st11{fill:#391A52;}
</style>
<path class="st0" d="M243.66,165.03c0,8.9-7.78,14.97-7.78,10.79c0-1.68,0-22.22,0-28.31c0-2.99-7.69-2.45-6.93,0.93
	c-0.13,0.07,0.02-0.01-0.11,0.06c-2.08-2.26-4.76-3.61-7.77-3.62c-7.3-0.03-13.71,7.81-14.32,17.53c-0.15,2.45,0.08,4.78,0.62,6.89
	c-2.59,4.19-11.61,11.17-13.52-4.22c1.18-2.27,8.56-16.42,10.37-21.51c1.82-5.12,3.53-11.38,2.27-16.88
	c-1.03-4.5-6.02-7.95-10.61-7.04c-15.31,3.04-9.28,38.36-8.74,41.89c-2.43,4.45-5.63,9.95-10.21,12.34
	c-2.81,1.47-6.6,1.26-9.88-3.29c6.88-3.69,18.5-14.22,11.51-23.49c-3.15-4.18-8.96-4.55-12.66-2.2c-6.97,4.41-9.41,16.2-6.45,24.56
	c-3.27,2.11-5.65,3.47-10.72,5.83c-0.13,0.06-0.24-0.1-0.15-0.2c0.61-0.71,1.04-1.31,1.25-1.63c2.22-3.19,3.71-7.35,4.01-11.9
	c0.66-10.03-4.73-18.17-12.04-18.17c-4.31,0-8.33,2.84-11.03,7.23c0-6.78,0-13.55,0-20.33c0-2.23,0-4.45,0-6.68
	c0-3.5-6.76-5.23-6.76-1.4c0,14.83,0,27.02,0,41.85c0,5.37-3.11,9.83-5.31,10.56c-0.16,0.05-0.39,0.01-0.39-0.14s0-16.42,0-27.56
	c0-2.01-6.77-5.65-6.77-1.83c0,6.45,0.36,13.54-1.41,19.69c-3.61,12.61-11.05,10.85-11.05,6.44c0-7.92-0.01-16.55,0-24.25
	c0-2.4-6.34-5.11-6.34-2.5c-0.01,7.93,0,22.57,0,24.29c0,2.98-2.72,6.25-4.46,6.83c-0.18,0.06-0.43,0.01-0.43-0.21
	c0.01-7.21,0-15.75,0-23.18c0-5.74-4.7-9.31-10.42-8.8c-4.15,0.37-7.49,3.59-8.38,6.16c0-1.15,0-0.97,0-2.12
	c0-0.12-0.02-0.24-0.05-0.35c-0.11-3.07-4.69-5.22-10.83-2.32c-4.52,2.14-8.05,6.3-8.19,11.46c-0.06,2.39,6.34,5.14,6.34,2.5
	c0-8.9,5.95-13.55,5.95-11.15c0,1.77,0,19.27,0,29.41c0,2.01,6.77,5.65,6.77,1.83c0-6.45,0-10.27,0-16c0-5.19,3.1-12.9,8.35-13.58
	c1.97-0.25,4.1,1.36,4.1,3.94c0,7.92,0.01,15.88,0,23.59c0,1.27,1.78,2.63,3.45,3.24c1.1,0.54,2.31,0.57,3.28,0.32
	c2.99-0.8,4.96-3.08,6.26-5.52c0,0,1.75,5.68,7.26,5.68c5.05,0,8.35-4.23,9.78-7.22c0,1.15,0,2.55,0,3.71
	c0,1.79,3.57,3.52,5.53,3.51c0.56,0.04,1.1-0.01,1.59-0.14c2.37-0.63,4.1-3.28,5.36-5.02c0,0.13,0,1.19,0,1.32
	c0.04,3.8,6.82,5.68,6.76,1.4c0-0.3,0-0.75,0-1.22c0.64,0.58,1.35,1.09,2.14,1.53c4.31,2.4,10.6,2.55,15.85,1.53
	c5.1-0.99,9.14-3.2,13.15-5.84c9.21,12.64,21.65,4.08,27.2-3.86c4.33,13.84,15.19,12.52,19.77,3.13c2.17,4.08,5.9,7.14,10.1,7.16
	c3.82,0.02,7.24-2.56,9.87-6l0,0c-0.05,8.01,9.41,6.25,12.92,4.51c4.48-2.22,8.05-6.29,8.19-11.46
	C250.06,165.13,243.66,162.38,243.66,165.03z M130.58,163.06c0.67-7.14,5.17-13.04,10.06-13.18c4.89-0.14,8.31,5.53,7.64,12.66
	c-0.67,7.14-5.17,13.04-10.06,13.18S129.92,170.2,130.58,163.06z M171.91,148.78c3.49,0,6.58,8.26-6.98,16.62
	C162.17,155.69,168.42,148.78,171.91,148.78z M191.71,155.69c-1.8-25,3.55-30.72,7.36-29.42
	C201.75,127.17,202.79,137.35,191.71,155.69z M228.89,165.66c-1.31,5.27-4.76,9.19-8.54,9.24c-4,0.05-7.85-4.25-7.28-12.2
	c0.49-6.8,4.54-12.42,9.05-12.42C230.79,150.28,230.2,160.39,228.89,165.66z"/>
</svg>
